<svg xmlns="http://www.w3.org/2000/svg" viewBox="0 0 289.49 279.52"><defs><style>.cls-1{fill:#e42528;}.cls-2{fill:#1d1e1c;}.cls-3{fill:#22100b;}.cls-4{fill:#c71e19;}.cls-5{fill:#e9ddd4;}.cls-6{fill:#cab099;}.cls-7{fill:#981a17;}.cls-8{fill:#fff;}</style></defs><g id="Chair"><polygon points="89.11 266.44 90.58 275.78 95.25 275.78 96.72 266.44 89.11 266.44"/><polygon points="167.39 266.44 168.86 275.78 173.53 275.78 175 266.44 167.39 266.44"/><polygon points="194.16 266.44 195.64 275.78 200.3 275.78 201.78 266.44 194.16 266.44"/><path class="cls-1" d="M910,617.53a5.92,5.92,0,0,0-6.18,5.6v5.93a6.52,6.52,0,0,1,2.06-.32H928.5V617.53Z" transform="translate(-804.69 -403.39)"/><rect class="cls-1" x="99.1" y="244.03" width="49.44" height="18.68"/><path class="cls-1" d="M899.66,623.13a8.7,8.7,0,0,1,2.07-5.6H897.6a5.92,5.92,0,0,0-6.18,5.6v43h8.24Z" transform="translate(-804.69 -403.39)"/><path class="cls-1" d="M903.78,634.34v9.34h49.44v-9.34a2,2,0,0,0-2.06-1.87H905.84A2,2,0,0,0,903.78,634.34Z" transform="translate(-804.69 -403.39)"/><path class="cls-1" d="M953.22,629.06v-5.93c0-5.15,4.61-9.33,10.3-9.34h30.9V582a5.92,5.92,0,0,0-6.18-5.6H938.8a5.92,5.92,0,0,0-6.18,5.6v46.71h18.54A6.52,6.52,0,0,1,953.22,629.06Z" transform="translate(-804.69 -403.39)"/><path class="cls-1" d="M1000.6,576.43h-4.13a8.75,8.75,0,0,1,2.07,5.6v33.63a1.78,1.78,0,0,1-.61,1.32,2.16,2.16,0,0,1-1.45.55h-20.6c-3.41,0-6.18,2.51-6.18,5.6v43h37.07V582A5.91,5.91,0,0,0,1000.6,576.43Z" transform="translate(-804.69 -403.39)"/><path class="cls-1" d="M957.34,623.13v43h8.24v-43a8.74,8.74,0,0,1,2.06-5.6h-4.12C960.11,617.53,957.34,620,957.34,623.13Z" transform="translate(-804.69 -403.39)"/><path d="M1000.6,572.69H938.8c-5.69,0-10.3,4.19-10.3,9.34v31.76H897.6c-5.68,0-10.29,4.19-10.3,9.34V668a1.81,1.81,0,0,0,.6,1.32,2.2,2.2,0,0,0,1.46.54h.27l1.81,11.48a2,2,0,0,0,2,1.6h8.24a2,2,0,0,0,2-1.6l1.81-11.48h62.34l1.81,11.48a2,2,0,0,0,2,1.6H980a2,2,0,0,0,2-1.6l1.8-11.48h10.85l1.81,11.48a2,2,0,0,0,2,1.6h8.24a2,2,0,0,0,2-1.6l2.06-13.08a2.45,2.45,0,0,0,0-.27V582C1010.89,576.88,1006.28,572.7,1000.6,572.69ZM891.42,623.13a5.92,5.92,0,0,1,6.18-5.6h4.13a8.7,8.7,0,0,0-2.07,5.6v43h-8.24Zm41.2-41.1a5.92,5.92,0,0,1,6.18-5.6h49.44a5.92,5.92,0,0,1,6.18,5.6v31.76h-30.9c-5.69,0-10.3,4.19-10.3,9.34v5.93a6.52,6.52,0,0,0-2.06-.32H932.62Zm35,35.5a8.74,8.74,0,0,0-2.06,5.6v43h-8.24v-43c0-3.09,2.77-5.6,6.18-5.6Zm-16.48,14.94a2,2,0,0,1,2.06,1.87v9.34H903.78v-9.34a2,2,0,0,1,2.06-1.87Zm2.06,14.95V666.1H903.78V647.42ZM928.5,628.74H905.84a6.52,6.52,0,0,0-2.06.32v-5.93a5.92,5.92,0,0,1,6.18-5.6H928.5Zm78.27,37.36H969.7v-43c0-3.09,2.77-5.6,6.18-5.6h20.6a2.16,2.16,0,0,0,1.45-.55,1.78,1.78,0,0,0,.61-1.32V582a8.75,8.75,0,0,0-2.07-5.6h4.13a5.91,5.91,0,0,1,6.17,5.6Zm-111.5,13.07-1.47-9.34h7.61l-1.47,9.34Zm78.28,0-1.48-9.34h7.61l-1.47,9.34Zm26.77,0-1.47-9.34h7.61l-1.47,9.34Z" transform="translate(-804.69 -403.39)"/></g><g id="Layer_1" data-name="Layer 1"><path class="cls-2" d="M952.64,610.45A74.33,74.33,0,0,1,932,607.93a78.05,78.05,0,0,1-21.23-9.12,85.4,85.4,0,0,1-19.28-16.23,92.85,92.85,0,0,1-17.76-30,96.24,96.24,0,0,1-5.44-24.74,97.73,97.73,0,0,1,1-24.81A94.23,94.23,0,0,1,887.62,461a85.46,85.46,0,0,1,15.43-15.56,80.51,80.51,0,0,1,26.84-13.89,73,73,0,0,1,17.39-3.08A81,81,0,0,1,968.16,430a80.16,80.16,0,0,1,27.92,11.81,86.84,86.84,0,0,1,24.25,24.48,93.71,93.71,0,0,1,13.19,30.54,98,98,0,0,1-.86,48.75,92.77,92.77,0,0,1-16,32.16,86.86,86.86,0,0,1-19.55,18.62,80.59,80.59,0,0,1-32.65,13.23A62.74,62.74,0,0,1,952.64,610.45Zm54.61-131.62c2.88.39,5.76.8,8.65,1.18,1.49.19,3,.31,4.62.48a88.52,88.52,0,0,0-7.37-12.5,87.45,87.45,0,0,0-17.68-18.18,26,26,0,0,0-3.75-2.51c.16,1.54.29,2.87.42,4.19.35,3.23.57,6.46.62,9.7a30.63,30.63,0,0,1-.12,5.33m-41.86,134.6c.05.64.13,1.29.16,1.93,0,.44.24.54.62.53a77.13,77.13,0,0,0,8.2-.24c1.9-.25,3.81-.65,5.72-1a69.53,69.53,0,0,0,15.36-4.81c.33-.15.88-.2.55-.82-.35-4.42-.75-8.83-1-13.26a3.57,3.57,0,0,0-1.93-3.14,14.13,14.13,0,0,0-2.09-1,25.33,25.33,0,0,0-8.5-1.38,35.65,35.65,0,0,0-12.26,1.59,4.59,4.59,0,0,0-2.75,2,25.5,25.5,0,0,0-2.08,6.53C950.06,592.4,950.48,596.77,950.78,601.12Zm-30.93-15.91c-.32.08-.52.2-.16.5,0,.32-.08.64-.14,1a33.8,33.8,0,0,0-.82,8.33c-.08.46.32.52.58.66a73.08,73.08,0,0,0,28.55,7.86c2.56.16,2.56.15,2-2.41-.23-2.19-.53-4.36-.66-6.55-.24-4.18-.5-8.38.84-12.45a2.24,2.24,0,0,0-.24-1.6.27.27,0,0,0-.13-.18l-.61-.78-.19-.2-.36-.35c0-.57-.31-.65-.75-.61l-1.9-.85-.23-.16-2.72-.64-.26-.08c-3.32-.29-6.64-.61-10-.88-4.24-.35-8.17.19-10.75,4.13A15.63,15.63,0,0,0,919.85,585.21Z" transform="translate(-804.69 -403.39)"/><path class="cls-3" d="M1053.52,487.21a1.25,1.25,0,0,1,.15-1.08A1.32,1.32,0,0,1,1053.52,487.21Z" transform="translate(-804.69 -403.39)"/><path class="cls-4" d="M892.76,573.12a64.26,64.26,0,0,1-5-7.4.45.45,0,0,0-.37-.6.56.56,0,0,1-.09-.17c-.13-.75.53-1.28.55-2l1-1.23a2.78,2.78,0,0,0,1.68-1.72h0l.23-.23h0a2.88,2.88,0,0,0,1.72-1.68l.65-.58a1,1,0,0,0,1.06-.88,20.26,20.26,0,0,1,4.27-2.85,1.34,1.34,0,0,0,1.36-.27,12.29,12.29,0,0,1,7.27-2.5,70.36,70.36,0,0,1,19.34,1.57,25.22,25.22,0,0,1,8.19,3.43,18.24,18.24,0,0,1,6.14,7.66c1,2.11.69,4.39,1.34,6.52.16.52-.25,1.5.64,1.43.68-.06.3-1,.34-1.48.15-1.9-.4-4,1.73-5.25,1-1,1.9-2.09,3-3,3.43-2.78,7.58-4.16,11.52-5.93a36.71,36.71,0,0,1,6.09-2.07c1.21-.3,2.4-.66,3.6-1l.73,0a12.35,12.35,0,0,0,2.94-.7l1.71,0c.28,0,.57,0,.85-.06a41.75,41.75,0,0,1,9.93,0l1.21,0c.82-.07,1.63.61,2.45,0h.47c.45.85,1.36.35,2,.69l1.22,0a24.37,24.37,0,0,0,4.4.74l3.43.72h.73c.16.66.82.55,1.25.81-.73.77-1.43,1.56-2.19,2.28-.57.56-.53,1,0,1.51,1.17,1.12,2.29,2.3,3.46,3.42.38.37.72,1.15,1.44.36s-.29-.9-.48-1.33c0-.1-.18-.16-.25-.26-.23-.3-.79-.58-.41-1s.73-1.07,1.51-.72c.44.2.89.38,1.33.6a1,1,0,0,0,1.46-.39c.22-.53-.49-.74-.82-.83a2.54,2.54,0,0,1-2.16-2.5l.74-.45a4.65,4.65,0,0,1,2.09,1.75c.73,1,1.36.91,2.11.12,1.38.54,2.18,1.78,3.17,2.76s1.76,2.11,2.72,3.08a1.58,1.58,0,0,1,.1,2.45c-.14.16-.14.45-.2.68l-.27.36v0a10.22,10.22,0,0,0-2.36,3.49l-.32.39a6.52,6.52,0,0,0-1.66,2.3c-.29.27-.68.46-.78.9-.51.39-.86,1.1-1.69.86a.16.16,0,0,0-.17-.08,9.12,9.12,0,0,0-6.43-1.86,3.74,3.74,0,0,0-1.49,0,1.51,1.51,0,0,0-1.43,0,2.9,2.9,0,0,0-1.49.05,2,2,0,0,0-1.48.09l-.46,0-1-.17c-1.37-1.78-3.16-3.16-4.6-4.87a.48.48,0,0,0-.74-.08c-.34.22-.78.43-.8.85a.9.9,0,0,0,.63.81,10.18,10.18,0,0,1,4,3.63l-.38.3a.27.27,0,0,0-.4,0l-.1,0-.09.05c-.34,0-.7,0-1,.25l-.49.07c-1.27,0-2.43.71-3.72.66-1,0-2.1-.1-2.67,1.06l-1.93.83c-.28-.18-.1-.71-.56-.79-.24.33,0,.61,0,.91-.35.07-.5.4-.67.65-.58.82-1.11,1-1.9.18a3.58,3.58,0,0,0-1.82-.85.21.21,0,0,0-.17-.08,12,12,0,0,0-4.8-1.54c-1.25-.21-2.51-.68-3.82-.33l-.5,0a23.17,23.17,0,0,0-7.48.16c-1.21.19-2.51,0-3.62.74l-.38.14c-1.61.31-3.25.56-4.46,1.85a1.25,1.25,0,0,0-.7.74c-.54.35-.8,0-1.16-.37-1.73-2-3.64-3.76-6.43-4.12l-.83-.23a1.22,1.22,0,0,0-1.37-.47h-.36a5.61,5.61,0,0,0-3.07-.78l-1-.11a.84.84,0,0,0-1-.09h-.34a.84.84,0,0,0-1.12-.19l-1.46-.18a.3.3,0,0,0-.48,0,20.65,20.65,0,0,0-4.16.08,10,10,0,0,0-7.11,3.83.35.35,0,0,0-.28.35.73.73,0,0,0-.45.63,1,1,0,0,0-.54.83,1.57,1.57,0,0,0-.68,1.13.09.09,0,0,0,0,.13c-.67.61-.67,1.53-1.05,2.28-.21.4-.19,1-.86,1a1.46,1.46,0,0,0-.71-.76,6.87,6.87,0,0,0-3.21-2.93h0a8.43,8.43,0,0,0-4-2.17,1.42,1.42,0,0,1,0-.2c.32-.37.62-.76,1-1.1l9.49-9.5c1.52-1.53,1.61-2.79.15-4.36-1.78-1.89-3.74-3.62-5.48-5.55a3.73,3.73,0,0,0-4.56-1.21,2.14,2.14,0,0,1-2-.26,3.06,3.06,0,0,0-4.26.59c-2.33,2.32-4.64,4.68-7,7-1.35,1.32-1.67,2.49-.8,4.12a3.14,3.14,0,0,1,.26,2.78,2.93,2.93,0,0,0,.81,3.44c.82.72,1.52,1.58,2.28,2.37l-1.26.43a11,11,0,0,0-2.56.2.41.41,0,0,0-.63,0l-1.35.08a1.22,1.22,0,0,0-.84-.82c-.26-.36-.51-.72-.77-1.07l0,0ZM983,575a3.64,3.64,0,0,0,2-2,.45.45,0,0,0,.51-.47c1-.19,2.1.51,3.15,0,.15.22.26.49.65.48a.65.65,0,0,0-.64-.49A14.5,14.5,0,0,0,986,572c-.26-.06-.43.18-.5.44a.48.48,0,0,0-.47.5,4.1,4.1,0,0,0-2,1.95l0,.12ZM998.5,559.8c-1.2.3-2.06,1.49-3.1,2.42-.34.3-.39.59,0,.92s.65.16.93-.13c.48-.5,1-1,1.47-1.47s.8-.49,1.19-.1.26.82-.07,1.2-.63.64-.93,1a.62.62,0,0,0,.06,1c.35.36.56.06.8-.16a12,12,0,0,1,1-.91,1,1,0,0,1,1.44,0,.94.94,0,0,1,0,1.4,11.2,11.2,0,0,1-1.55,1.53.62.62,0,0,0-.08,1c.38.44.62.17.89-.11.6-.6,1.24-1.17,1.8-1.81,1.1-1.22,1-2-.31-3-.68-.51-1.42-.87-1.77-1.79A1.69,1.69,0,0,0,998.5,559.8Zm-4.69,9.46a5.38,5.38,0,0,0,2,2.57.54.54,0,0,0,.55-.19,28,28,0,0,1,2.49-2.5c.25-.26.44-.51.13-.83a.58.58,0,0,0-.87,0c-.45.4-.89.84-1.37,1.21-.29.22-.54.66-1,.3s-.33-.78-.17-1.2.43-1,.66-1.43a1.79,1.79,0,0,0-.61-2.37,1.92,1.92,0,0,0-2.36-.23,12,12,0,0,0-2,1.8c-.36.32-.15.56.1.81s.46.3.72,0,.75-.75,1.13-1.11.72-.83,1.24-.58.39.93.31,1.43a3,3,0,0,1-.45,1A3.91,3.91,0,0,0,993.81,569.26Z" transform="translate(-804.69 -403.39)"/><path class="cls-5" d="M990.57,450.4a92.24,92.24,0,0,1-.34,12.66c-.18,2.14-.43,4.28-.66,6.42l-.32,1.74-1.11,5.09,0,.26-.12.5c-.65.91-.68,2.07-1.28,3l-.5.11-.25.06a79.27,79.27,0,0,1-18.28.22,64.53,64.53,0,0,1-12.85-2.1,5.06,5.06,0,0,1-3.88-4.25,19,19,0,0,1-.2-6.63,106.08,106.08,0,0,0,.51-17.82c-.1-2.52-.26-5-.39-7.56a5.6,5.6,0,0,0,1.07.2,92.26,92.26,0,0,1,30.47,4.95C985.17,448.17,987.81,449.44,990.57,450.4Z" transform="translate(-804.69 -403.39)"/><path class="cls-5" d="M913.27,465.32q-.32-6.79-.62-13.57c0-.36,0-.73,0-1.09a2,2,0,0,0,1.07-.16,86.09,86.09,0,0,1,16.52-5.71A90.51,90.51,0,0,1,949,442.31c.06,4-.28,8-.53,12a117.38,117.38,0,0,1-1.92,15.86,22.35,22.35,0,0,1-1.63,5.21,2.91,2.91,0,0,1-2.28,1.74,64.86,64.86,0,0,1-14.13.62,71.6,71.6,0,0,1-11-1.3c-1.66-.33-2.77-1-3-2.79a5.53,5.53,0,0,0-.29-.93l-.62-3.7-.11-2.17Zm4.46-3.1-.1,0,.09,0Z" transform="translate(-804.69 -403.39)"/><path class="cls-5" d="M948.47,579l.36.35.19.2.61.78a.17.17,0,0,0,.13.18,2.24,2.24,0,0,1,.24,1.6c-1.34,4.07-1.08,8.27-.84,12.45.13,2.19.43,4.36.66,6.55a95.9,95.9,0,0,1-15.2-1.75,78.71,78.71,0,0,1-11.25-3,20,20,0,0,0-4.64-1.37,33.8,33.8,0,0,1,.82-8.33c.06-.32.1-.64.14-1a.46.46,0,0,0,.16-.5,15.63,15.63,0,0,1,2-5.3c2.58-3.94,6.51-4.48,10.75-4.13,3.32.27,6.64.59,10,.88l.26.08,2.72.64.23.16,1.9.85Z" transform="translate(-804.69 -403.39)"/><path class="cls-5" d="M950.78,601.12c-.3-4.35-.72-8.72,0-13a25.5,25.5,0,0,1,2.08-6.53,4.59,4.59,0,0,1,2.75-2A35.65,35.65,0,0,1,967.85,578a25.33,25.33,0,0,1,8.5,1.38,14.13,14.13,0,0,1,2.09,1,3.57,3.57,0,0,1,1.93,3.14c.27,4.43.67,8.84,1,13.26a122.93,122.93,0,0,1-13,3.15A97.48,97.48,0,0,1,950.78,601.12Z" transform="translate(-804.69 -403.39)"/><path class="cls-5" d="M992.64,466.52a30.63,30.63,0,0,0,.12-5.33c0-3.24-.27-6.47-.62-9.7a8.42,8.42,0,0,1,1,.33,84.07,84.07,0,0,1,10.74,6.37c.59.39,1.08,1,1.91,1a68.17,68.17,0,0,1,7.32,8.84,88.52,88.52,0,0,1,7.37,12.5c-1.63-.17-3.13-.29-4.62-.48-2.89-.38-5.77-.79-8.65-1.18l-4.57-.81c-.3-.3-.69-.19-1-.23l-.28-.12-.71-.06c-2.6-.79-5.28-1.31-7.83-2.29a1.1,1.1,0,0,1-.73-1.39,33.64,33.64,0,0,0,.48-5.67Zm6.83-.61-.09,0s0,.07,0,.08l.08,0Z" transform="translate(-804.69 -403.39)"/><path class="cls-5" d="M910.76,452.36l-.11.76s-.06.05-.06.07,0,.12,0,.17c-.16,4.32-.49,8.64-.36,13,0,.32,0,.64.07,1l.06,2.45.26,2.42a2.91,2.91,0,0,0,.2,1.49c.2.93-.27,1.42-1.1,1.69l-3.3,1.05-2,.44c-4.32.94-8.7,1.57-13.06,2.3-2.48.41-5,.74-7.66,1.13.63-1.27,1.15-2.4,1.74-3.49a89.15,89.15,0,0,1,11.06-15.85c.32-.36.71-.67,1.06-1,1.73-.8,3.08-2.17,4.69-3.15,2.5-1.52,5-3,7.56-4.43C910.18,452.17,910.47,452.08,910.76,452.36Z" transform="translate(-804.69 -403.39)"/><path class="cls-5" d="M992.1,576.28c4-.44,7.95-.74,11.88.35.27.08.54.15.8.25,2.33.9,2.45,1.49.77,3.23a79.16,79.16,0,0,1-19,14.65c-1.07.58-2.21,1-3.27,1.64-.79.45-.91.2-.93-.59-.07-4.23-.13-8.47-.32-12.7a5.71,5.71,0,0,1,.86-3.69,8.8,8.8,0,0,1,2.64-1.48l2.44-.84Z" transform="translate(-804.69 -403.39)"/><path class="cls-6" d="M990.57,450.4c-2.76-1-5.4-2.23-8.18-3.15a92.26,92.26,0,0,0-30.47-4.95,5.6,5.6,0,0,1-1.07-.2c-.21-2-.39-4-.62-6-.09-.76.16-.94.92-.95a70.82,70.82,0,0,1,26.09,4.6,78.35,78.35,0,0,1,12.26,5.95,1.88,1.88,0,0,1,1.09,1.84C990.55,448.52,990.58,449.46,990.57,450.4Z" transform="translate(-804.69 -403.39)"/><path class="cls-7" d="M944.85,564.89c-2.13,1.24-1.58,3.35-1.73,5.25,0,.52.34,1.42-.34,1.48-.89.07-.48-.91-.64-1.43-.65-2.13-.32-4.41-1.34-6.52a18.24,18.24,0,0,0-6.14-7.66,25.22,25.22,0,0,0-8.19-3.43A70.36,70.36,0,0,0,907.13,551a12.29,12.29,0,0,0-7.27,2.5,1.34,1.34,0,0,1-1.36.27,13.68,13.68,0,0,1,4.5-2.4,49.58,49.58,0,0,1,20.25-3,84.57,84.57,0,0,1,21.57,4.39c.68.23.94.56.51,1.27A21.26,21.26,0,0,0,942,565.08a20.36,20.36,0,0,0,.41,3.71c.71-2,.37-4.16,1.23-6.09,1.25,1,.86-.51,1.26-.85l-1,.11a18.57,18.57,0,0,1,5.87-9.06,4.43,4.43,0,0,1,1.32-.61q4.66-1.89,9.36-3.76a4.41,4.41,0,0,1,.82-.16c-.39.59-1.5,1.34.35,1.4.36,0,.63.23.5.65s-.33.57-.73.45a3.2,3.2,0,0,1-1.14-.39c-1.1-1-2.12-.17-3.2,0,1.63-.23,2.56,1.34,4.05,1.47a2.08,2.08,0,0,1-1.44.16,3,3,0,0,0-3.73.66.75.75,0,0,1-1.16-.22c-.26-.57.33-.62.66-.81s.45-.23.37-.54a.3.3,0,0,0-.48-.18c-1,.86-2.43.88-3.35,1.64-.71.58-1.75.42-2.34,1.35a5.22,5.22,0,0,1,2.77,1.49,1,1,0,0,0,1.14.14c.58-.28,1.37-.69,1.73,0s-.56,1.13-1,1.62a.56.56,0,0,1-.86,0,3.15,3.15,0,0,0-2.09-.49,2.59,2.59,0,0,1-1.56-.17c-.78-.55-.79.24-1,.57-.27.55.22.72.61.79s.9,0,1.33.11c.65.14.83.48.27,1a1.81,1.81,0,0,1-2,.23c-.61-.24-1.07-.61-.76-1.41.18-.46-.12-.77-.5-1a.54.54,0,0,0-.75.2c-.22.33-.58.82-.2,1.09.62.44.69,1.18,1.14,1.65.67.72.32,1-.36,1.33C946,562,944.8,563,944.85,564.89Zm3.7-9c.24-.37.87-.56.89-1.21a.22.22,0,0,0-.34-.2c-.49.28-1,.55-1,1.22C948.1,555.94,948.25,556,948.55,555.93ZM946,560.49c0-.3-.13-.42-.35-.44a.42.42,0,0,0-.51.39c0,.27.08.49.4.47A.46.46,0,0,0,946,560.49Z" transform="translate(-804.69 -403.39)"/><path class="cls-6" d="M949,442.31a90.51,90.51,0,0,0-18.75,2.48,86.09,86.09,0,0,0-16.52,5.71,2,2,0,0,1-1.07.16c0-.12,0-.24-.07-.35-.39-2.2.25-3.57,2.39-4.81A75.83,75.83,0,0,1,941.62,436c2.26-.34,4.53-.42,6.78-.78.69-.11,1,.09.91.8A60.83,60.83,0,0,1,949,442.31Z" transform="translate(-804.69 -403.39)"/><path class="cls-5" d="M908.64,578.56a12.65,12.65,0,0,1,9,6.65,2.21,2.21,0,0,1,.37,1c0,2.8,0,5.61,0,8.64a75.78,75.78,0,0,1-21.09-16.64,29,29,0,0,1,5.6-.35,12.06,12.06,0,0,0,3.23.18l.46,0,1.75.42Z" transform="translate(-804.69 -403.39)"/><path class="cls-7" d="M944.85,564.89c-.05-1.91,1.16-2.92,2.67-3.68.68-.34,1-.61.36-1.33-.45-.47-.52-1.21-1.14-1.65-.38-.27,0-.76.2-1.09a.54.54,0,0,1,.75-.2c.38.22.68.53.5,1-.31.8.15,1.17.76,1.41a1.81,1.81,0,0,0,2-.23c.56-.51.38-.85-.27-1-.43-.1-.9,0-1.33-.11s-.88-.24-.61-.79c.17-.33.18-1.12,1-.57a2.59,2.59,0,0,0,1.56.17,3.15,3.15,0,0,1,2.09.49.56.56,0,0,0,.86,0c.42-.49,1.39-.86,1-1.62s-1.15-.28-1.73,0a1,1,0,0,1-1.14-.14,5.22,5.22,0,0,0-2.77-1.49c.59-.93,1.63-.77,2.34-1.35.92-.76,2.36-.78,3.35-1.64a.3.3,0,0,1,.48.18c.08.31-.16.43-.37.54s-.92.24-.66.81a.75.75,0,0,0,1.16.22,3,3,0,0,1,3.73-.66,2.08,2.08,0,0,0,1.44-.16c-1.49-.13-2.42-1.7-4.05-1.47,1.08-.21,2.1-1,3.2,0a3.2,3.2,0,0,0,1.14.39c.4.12.62-.1.73-.45s-.14-.64-.5-.65c-1.85-.06-.74-.81-.35-1.4l.5-.09c.52.42,1,1.32,1.67.23.51-.85,1-1,1.53-.17s.84,1.07,1.63.85.31-1,.48-1.53c1.8.22,3.54.06,5.28.13.29,0,1-.06.68.43-1.12,1.55.18,1.17.91,1.32a3.36,3.36,0,0,1,.79.32,11.28,11.28,0,0,0,2.77,1.2c1.83.14,3.68.61,5.56.21.83-.17,1.85-.39,2.19.87a41.75,41.75,0,0,0-9.93,0c-.28,0-.57,0-.85.06,0-.94-.55-1.3-1.4-1.18s-.24.79-.31,1.2a12.35,12.35,0,0,1-2.94.7c0-.41.46-.84,0-1.24a.47.47,0,0,0-.43-.09c-.49.3-.21.81-.29,1.23v.12c-1.2.34-2.39.7-3.6,1a36.71,36.71,0,0,0-6.09,2.07c-3.94,1.77-8.09,3.15-11.52,5.93C946.75,562.8,945.85,563.9,944.85,564.89Zm19.89-13.71a7.27,7.27,0,0,0-.75.13c-.55.14-1.08.41-1,1.05s.77.77,1.35.78.91-.51,1.42-.66c.3-.09.71-.12.69-.55s-.41-.44-.72-.51ZM960,554.39c.55,0,1.29.13,1.29-.58s-.74-.35-1.14-.39-1.24-.2-1.25.53S959.67,554.25,960,554.39Zm-6.55,0a.66.66,0,1,0-.08-1.32c-.38,0-.88.17-.82.68S953.11,554.22,953.47,554.34Zm4.16,1.69c.42,0,.43-.34.41-.63s-.31-.53-.67-.51-.5.13-.45.44A.84.84,0,0,0,957.63,556Z" transform="translate(-804.69 -403.39)"/><path class="cls-7" d="M985.23,552.14c-.34-1.26-1.36-1-2.19-.87-1.88.4-3.73-.07-5.56-.21a11.28,11.28,0,0,1-2.77-1.2,3.36,3.36,0,0,0-.79-.32c-.73-.15-2,.23-.91-1.32.36-.49-.39-.42-.68-.43-1.74-.07-3.48.09-5.28-.13-.17.51.4,1.29-.48,1.53s-1.22-.16-1.63-.85-1-.68-1.53.17c-.65,1.09-1.15.19-1.67-.23a33.23,33.23,0,0,1,9.45-2.67,41.91,41.91,0,0,1,17.26,1,56.87,56.87,0,0,1,11,3.65c.36.17.79.27,1,.68-1.19-.09-.16.82-.47,1.15-.54-.13-1-.27-1.56-.36a.74.74,0,0,0-.7.4.37.37,0,0,0,.09.53,3.63,3.63,0,0,0,2.81-.09c1-.61-.12-.92-.16-1.38a2.18,2.18,0,0,0,0-.25,9.9,9.9,0,0,1,3.06,1.54c.35.18.63.49,1.06.49,0,.1,0,.2,0,.31-.13,1.22,1.06,1.68,1.48,2.59l-.74.45a3,3,0,0,0-2.92-1.14c-.43-.26-1.09-.15-1.25-.81.3,0,.38-.16.07-.32s-.71-.21-.8.32l-3.43-.72c-.59-1.24-1.84-1-2.86-1.2-.49-.08-1.24-.39-1.54.46l-1.22,0c-.16-1.66-1.28-.59-2-.69h-.47a7.55,7.55,0,0,1-.43-1c-.2-.81-.8-.79-1.42-.76-.83,0-.29.66-.4,1s-.13.46-.2.69Zm-.05-5.38a17.56,17.56,0,0,0-5.87-.73c-1.85.16-3.73,0-5.59,0-.27,0-.64,0-.62.39s.33.32.57.33c.67,0,1.37,0,1.11,1-.1.4.31.58.63.61.87.09,1.85.36,2-1a.64.64,0,0,1,.84-.5c.23.05.56.2.39.48-.63,1.08.27.79.75.86s.87-.12,1.33.27c-.67.65-1.44.38-2.12.48s-1.58-.35-1.61.57,1,.61,1.55.62c1.67,0,3.34,0,5,0a4.31,4.31,0,0,0,1.08-.12c.38-.12.82-.3.73-.83s-.47-.53-.85-.51a3.9,3.9,0,0,1-3.17-.9c-.34-.33-1.33-.23-1-.86s1.1-.23,1.67,0l.31.19A2.15,2.15,0,0,0,985.18,546.76Zm13.38,3.59c-.2-.05-.41-.17-.49-.11-1.5,1-3.14.57-4.74.47h-.13c-.3,0-.57.09-.58.47s.26.5.56.48C995,551.56,997.05,552.3,998.56,550.35Zm-5.13-1.61c-.33.1-.86-.18-.93.3s.48.48.8.55c.75.17,1.51.26,2.27.37.18,0,.43,0,.49-.23a.32.32,0,0,0-.32-.41C994.9,549.39,994.24,548.74,993.43,548.74ZM970,546.87l1.42-.08c.31,0,.59-.13.56-.48-.06-.51-.4-.26-.63-.16a4,4,0,0,1-1.41.17c-.21,0-.46,0-.46.28S969.72,547,970,546.87Zm21.15,1.88c.24,0,.7,0,.75-.35s-.44-.37-.71-.36-.86-.22-.89.32C990.27,548.74,990.74,548.73,991.14,548.75ZM987.73,547c-.16.11-.6-.12-.62.28s.46.44.8.45.65,0,.63-.35S988.1,547.08,987.73,547Zm14.46,5.93c.58.78,1,1.18,1.88,1A2.68,2.68,0,0,0,1002.19,553Z" transform="translate(-804.69 -403.39)"/><path class="cls-6" d="M918.73,595a20,20,0,0,1,4.64,1.37,78.71,78.71,0,0,0,11.25,3,95.9,95.9,0,0,0,15.2,1.75c.6,2.56.6,2.57-2,2.41a73.08,73.08,0,0,1-28.55-7.86C919.05,595.52,918.65,595.46,918.73,595Z" transform="translate(-804.69 -403.39)"/><path class="cls-6" d="M950.78,601.12a97.48,97.48,0,0,0,17.65-1.27,122.93,122.93,0,0,0,13-3.15c.33.62-.22.67-.55.82a69.53,69.53,0,0,1-15.36,4.81c-1.91.36-3.82.76-5.72,1a77.13,77.13,0,0,1-8.2.24c-.38,0-.6-.09-.62-.53C950.91,602.41,950.83,601.76,950.78,601.12Z" transform="translate(-804.69 -403.39)"/><path class="cls-6" d="M1005.83,459.15c-.83.06-1.32-.57-1.91-1a84.07,84.07,0,0,0-10.74-6.37,8.42,8.42,0,0,0-1-.33c-.13-1.32-.26-2.65-.42-4.19a26,26,0,0,1,3.75,2.51A68.51,68.51,0,0,1,1005.83,459.15Z" transform="translate(-804.69 -403.39)"/><path class="cls-6" d="M910.76,452.36c-.29-.28-.58-.19-.89,0-2.56,1.41-5.06,2.91-7.56,4.43-1.61,1-3,2.35-4.69,3.15a40.54,40.54,0,0,1,5.45-5.51,71.36,71.36,0,0,1,7.41-5.91c.15-.11.33-.19.65-.37Z" transform="translate(-804.69 -403.39)"/><path class="cls-2" d="M904.48,476.83l2-.44a7.3,7.3,0,0,1-.78,2,1,1,0,0,0,.08,1.44c.54.42.89-.15,1.24-.43a6.56,6.56,0,0,0,.91-1c.4-.48.75-.27,1.13.05s.07.64-.16.88c-.8.81-1.6,1.61-2.41,2.41-.19.19-.37.41-.73.29a3.11,3.11,0,0,1-1.54-3.83C904.41,477.8,904.9,477.4,904.48,476.83Z" transform="translate(-804.69 -403.39)"/><path class="cls-2" d="M985.48,577.94a8.8,8.8,0,0,0-2.64,1.48c-.45-.78-.87-1.6-2-.83a.43.43,0,0,1-.35,0,13,13,0,0,1-2.64-1.9,3.58,3.58,0,0,1,1.82.85c.79.83,1.32.64,1.9-.18.17-.25.32-.58.67-.65.23.21.4.16.52-.12l1.93-.83a.41.41,0,0,1,0,.19A3.15,3.15,0,0,0,985.48,577.94Z" transform="translate(-804.69 -403.39)"/><path class="cls-4" d="M993.53,573.37a10.18,10.18,0,0,0-4-3.63.9.9,0,0,1-.63-.81c0-.42.46-.63.8-.85a.48.48,0,0,1,.74.08c1.44,1.71,3.23,3.09,4.6,4.87l-.48.43A1.46,1.46,0,0,1,993.53,573.37Z" transform="translate(-804.69 -403.39)"/><path class="cls-4" d="M1006,555.88c-.42-.91-1.61-1.37-1.48-2.59.78-.08.93,1.07,1.76.88l.88.55c.19.37.41.7.9.71.41,1.05,1.69,1.3,2.14,2.32-.75.79-1.38.87-2.11-.12A4.65,4.65,0,0,0,1006,555.88Z" transform="translate(-804.69 -403.39)"/><path class="cls-2" d="M992.1,576.28l-4.18.82c0-.72.19-1.5-.57-2l0-.39c1.29,0,2.45-.62,3.72-.66C991.37,574.82,992.22,575.33,992.1,576.28Z" transform="translate(-804.69 -403.39)"/><path class="cls-2" d="M905.73,578.06a12.06,12.06,0,0,1-3.23-.18l1.23-.14c-1.47-1.18-2.12-3.15-4.38-2.85-.14,0-.29-.12-.43-.18l1.25-.43a2.23,2.23,0,0,0,2.07.31l.52.22C903.39,576.22,904.89,576.84,905.73,578.06Z" transform="translate(-804.69 -403.39)"/><path class="cls-2" d="M992.64,466.52l-.07,1.74" transform="translate(-804.69 -403.39)"/><path class="cls-2" d="M989.25,471.22l.32-1.74" transform="translate(-804.69 -403.39)"/><path class="cls-2" d="M957.48,575.61c1.11-.72,2.41-.55,3.62-.74a23.17,23.17,0,0,1,7.48-.16,2.22,2.22,0,0,1-.68.21,52.53,52.53,0,0,0-9.2.72A5.56,5.56,0,0,1,957.48,575.61Z" transform="translate(-804.69 -403.39)"/><path class="cls-2" d="M944.35,573.85c2.79.36,4.7,2.11,6.43,4.12.36.42.62.72,1.16.37-.19.65-.63,1-1.1.39a13.11,13.11,0,0,0-6.18-4.53C944.53,574.16,944.45,574,944.35,573.85Z" transform="translate(-804.69 -403.39)"/><path class="cls-2" d="M1008.09,555.43c-.49,0-.71-.34-.9-.71.61-.66,1.21-1.31,1.83-2a.66.66,0,0,1,1.06,0c.44.4.21.73-.13,1C1009.29,554.26,1008.94,555.12,1008.09,555.43Z" transform="translate(-804.69 -403.39)"/><path class="cls-2" d="M907.94,578.52l-1.75-.42a16.72,16.72,0,0,0,2.46-2.37,3.58,3.58,0,0,0,1.65.25.69.69,0,0,0,0,.2l-.18.2c-.88.26-1.29,1-1.74,1.7A.46.46,0,0,0,907.94,578.52Z" transform="translate(-804.69 -403.39)"/><path class="cls-2" d="M969.08,574.74c1.31-.35,2.57.12,3.82.33a12,12,0,0,1,4.8,1.54c-2.7-.47-5.3-1.5-8.1-1.45A.49.49,0,0,1,969.08,574.74Z" transform="translate(-804.69 -403.39)"/><path class="cls-3" d="M922.09,575.66a10,10,0,0,1,7.11-3.83c-.31.7-1.06.49-1.58.66a10.73,10.73,0,0,0-4.46,2.73A1.27,1.27,0,0,1,922.09,575.66Z" transform="translate(-804.69 -403.39)"/><path class="cls-3" d="M1002.35,573a9.12,9.12,0,0,1,6.43,1.86c-.9.12-1.42-.71-2.21-.88a9.68,9.68,0,0,0-3.33-.57C1002.89,573.5,1002.49,573.52,1002.35,573Z" transform="translate(-804.69 -403.39)"/><path class="cls-3" d="M914.27,578.35a6.87,6.87,0,0,1,3.21,2.93C916,580.78,915.21,579.47,914.27,578.35Z" transform="translate(-804.69 -403.39)"/><path class="cls-3" d="M910.09,576.38l.18-.2a8.45,8.45,0,0,1,4,2.17C912.73,578,911.5,577,910.09,576.38Z" transform="translate(-804.69 -403.39)"/><path class="cls-3" d="M918.19,582c.67,0,.65-.63.86-1,.38-.75.38-1.67,1.05-2.28a11,11,0,0,1-1.12,3.62c-.08.24-.27.43-.55.31S918.2,582.27,918.19,582Z" transform="translate(-804.69 -403.39)"/><path class="cls-2" d="M952.64,577.6c1.21-1.29,2.85-1.54,4.46-1.85-.45.69-1.28.53-1.91.84A27,27,0,0,1,952.64,577.6Z" transform="translate(-804.69 -403.39)"/><path class="cls-3" d="M1013.4,570.53a10.22,10.22,0,0,1,2.36-3.49A6.89,6.89,0,0,1,1013.4,570.53Z" transform="translate(-804.69 -403.39)"/><path class="cls-2" d="M938.72,572.37a5.61,5.61,0,0,1,3.07.78l-1.82.06c-.07-.44-.39-.48-.75-.47A.52.52,0,0,1,938.72,572.37Z" transform="translate(-804.69 -403.39)"/><path class="cls-3" d="M1011.42,573.22a6.52,6.52,0,0,1,1.66-2.3A2.57,2.57,0,0,1,1011.42,573.22Z" transform="translate(-804.69 -403.39)"/><path class="cls-7" d="M943.87,562l1-.11c-.4.34,0,1.84-1.26.85l.09-.51c0-.08.09-.15.14-.23Z" transform="translate(-804.69 -403.39)"/><path class="cls-3" d="M1009,575c.83.24,1.18-.47,1.69-.86a1.45,1.45,0,0,1-1,1.47C1009.23,575.72,1009,575.38,1009,575Z" transform="translate(-804.69 -403.39)"/><path class="cls-7" d="M892.52,558.09a2.88,2.88,0,0,1-1.72,1.68A2.58,2.58,0,0,1,892.52,558.09Z" transform="translate(-804.69 -403.39)"/><path class="cls-7" d="M890.55,560a2.78,2.78,0,0,1-1.68,1.72A2.62,2.62,0,0,1,890.55,560Z" transform="translate(-804.69 -403.39)"/><path class="cls-7" d="M887.87,563c0,.7-.68,1.23-.55,2C886.33,564,887.26,563.51,887.87,563Z" transform="translate(-804.69 -403.39)"/><path class="cls-3" d="M999.43,573a1.51,1.51,0,0,1,1.43,0A1.25,1.25,0,0,1,999.43,573Z" transform="translate(-804.69 -403.39)"/><path class="cls-3" d="M994.52,573.46,995,573l1,.17A1.43,1.43,0,0,1,994.52,573.46Z" transform="translate(-804.69 -403.39)"/><path class="cls-3" d="M996.46,573.17a2,2,0,0,1,1.48-.09C997.48,573.7,997,573.56,996.46,573.17Z" transform="translate(-804.69 -403.39)"/><path class="cls-7" d="M894.23,556.63a1,1,0,0,1-1.06.88A1.23,1.23,0,0,1,894.23,556.63Z" transform="translate(-804.69 -403.39)"/><path class="cls-2" d="M893.54,574.21a1.22,1.22,0,0,1,.84.82C893.77,575.09,893.6,574.71,893.54,574.21Z" transform="translate(-804.69 -403.39)"/><path class="cls-2" d="M942.15,573.15a1.22,1.22,0,0,1,1.37.47A1.45,1.45,0,0,1,942.15,573.15Z" transform="translate(-804.69 -403.39)"/><path class="cls-3" d="M920.14,578.6a1.57,1.57,0,0,1,.68-1.13C920.85,578,920.77,578.46,920.14,578.6Z" transform="translate(-804.69 -403.39)"/><path class="cls-2" d="M935.3,572a.84.84,0,0,1,1.12.19C936,572.25,935.63,572.34,935.3,572Z" transform="translate(-804.69 -403.39)"/><path class="cls-2" d="M936.76,572.17a.84.84,0,0,1,1,.09A.61.61,0,0,1,936.76,572.17Z" transform="translate(-804.69 -403.39)"/><path class="cls-3" d="M991.59,574c.27-.28.63-.23,1-.25C992.38,574.33,992,574.29,991.59,574Z" transform="translate(-804.69 -403.39)"/><path class="cls-3" d="M939.22,572.74c.36,0,.68,0,.75.47C939.61,573.23,939.29,573.19,939.22,572.74Z" transform="translate(-804.69 -403.39)"/><path class="cls-3" d="M907.94,578.52a.46.46,0,0,1,.41-.44.57.57,0,0,1,.29.48Z" transform="translate(-804.69 -403.39)"/><path class="cls-2" d="M895.73,575a.41.41,0,0,1,.63,0C896.17,575.19,896,575.19,895.73,575Z" transform="translate(-804.69 -403.39)"/><path class="cls-3" d="M948.47,579l-.75-.61C948.16,578.35,948.51,578.43,948.47,579Z" transform="translate(-804.69 -403.39)"/><path class="cls-3" d="M919.85,585.21a.46.46,0,0,1-.16.5C919.33,585.41,919.53,585.29,919.85,585.21Z" transform="translate(-804.69 -403.39)"/><path class="cls-7" d="M887.41,565.12a.45.45,0,0,1,.37.6A.58.58,0,0,1,887.41,565.12Z" transform="translate(-804.69 -403.39)"/><path class="cls-2" d="M933.36,571.75a.3.3,0,0,1,.48,0C933.66,572,933.5,572,933.36,571.75Z" transform="translate(-804.69 -403.39)"/><path class="cls-3" d="M921.36,576.64a.73.73,0,0,1,.45-.63C921.85,576.36,921.74,576.6,921.36,576.64Z" transform="translate(-804.69 -403.39)"/><path class="cls-2" d="M985.94,480.24l.25-.06Z" transform="translate(-804.69 -403.39)"/><path class="cls-3" d="M945.82,577.54l-.23-.16Z" transform="translate(-804.69 -403.39)"/><path class="cls-3" d="M942.87,576.74l-.26-.08Z" transform="translate(-804.69 -403.39)"/><path class="cls-3" d="M992.75,573.69a.27.27,0,0,1,.4,0Z" transform="translate(-804.69 -403.39)"/><path class="cls-7" d="M890.79,559.78l-.23.23Z" transform="translate(-804.69 -403.39)"/><polygon class="cls-2" points="88.07 169.72 88.12 169.72 88.09 169.75 88.07 169.72"/><path class="cls-7" d="M943.87,562c0,.08-.1.15-.14.23C943.77,562.11,943.82,562,943.87,562Z" transform="translate(-804.69 -403.39)"/><path class="cls-3" d="M1015.75,567.08l.27-.36Z" transform="translate(-804.69 -403.39)"/><path class="cls-6" d="M910.63,453.36c0-.05,0-.11,0-.17s0-.05.06-.07a1.09,1.09,0,0,1,.05.17S910.66,453.34,910.63,453.36Z" transform="translate(-804.69 -403.39)"/><path class="cls-3" d="M949.76,580.51a.17.17,0,0,1-.13-.18A.27.27,0,0,1,949.76,580.51Z" transform="translate(-804.69 -403.39)"/><path class="cls-3" d="M949,579.55l-.19-.2Z" transform="translate(-804.69 -403.39)"/><path class="cls-4" d="M910.3,576a3.58,3.58,0,0,1-1.65-.25l-.23-.34a5.25,5.25,0,0,1,2.15-5.23,13.79,13.79,0,0,0,2-2c1.48-1.77,3.12-2.94,5.65-2.59,1.23.17,1.95-1,2.48-2s-.26-1.43-.8-2c-1.74-1.76-3.54-3.47-5.22-5.3a2.81,2.81,0,0,0-3.21-1,3.34,3.34,0,0,1-3.23-.39,1.83,1.83,0,0,0-2.55.14c-2.52,2.54-5.07,5.06-7.58,7.61a2,2,0,0,0-.26,2.77,3,3,0,0,1,.37,3.08,2.07,2.07,0,0,0,.2,2.4c1.25,1.26,2.55,2.48,3.83,3.72a2.23,2.23,0,0,1-2.07-.31c-.75-.79-1.45-1.65-2.27-2.37a2.93,2.93,0,0,1-.81-3.44,3.14,3.14,0,0,0-.26-2.78c-.87-1.63-.55-2.8.8-4.12,2.36-2.3,4.67-4.66,7-7a3.06,3.06,0,0,1,4.26-.59,2.14,2.14,0,0,0,2,.26,3.73,3.73,0,0,1,4.56,1.21c1.74,1.93,3.7,3.66,5.48,5.55,1.46,1.57,1.37,2.83-.15,4.36l-9.49,9.5C910.92,575.22,910.62,575.61,910.3,576Z" transform="translate(-804.69 -403.39)"/><path class="cls-4" d="M1002.37,555.19a3,3,0,0,1,2.92,1.14,2.54,2.54,0,0,0,2.16,2.5c.33.09,1,.3.82.83a1,1,0,0,1-1.46.39c-.44-.22-.89-.4-1.33-.6-.78-.35-1.14.32-1.51.72s.18.7.41,1c.07.1.2.16.25.26.19.43,1.18.55.48,1.33s-1.06,0-1.44-.36c-1.17-1.12-2.29-2.3-3.46-3.42-.56-.53-.6-1,0-1.51C1000.94,556.75,1001.64,556,1002.37,555.19Zm1.89,2.43c-.2-.57-.4-1.13-1.07-1.22-.45-.06-1.65,1.23-1.57,1.69s.55,1.2,1.1,1.12C1003.52,559.09,1004,558.35,1004.26,557.62Z" transform="translate(-804.69 -403.39)"/><path class="cls-4" d="M998.5,559.8a1.69,1.69,0,0,1,1.76.91c.35.92,1.09,1.28,1.77,1.79,1.33,1,1.41,1.8.31,3-.56.64-1.2,1.21-1.8,1.81-.27.28-.51.55-.89.11a.62.62,0,0,1,.08-1,11.2,11.2,0,0,0,1.55-1.53.94.94,0,0,0,0-1.4,1,1,0,0,0-1.44,0,12,12,0,0,0-1,.91c-.24.22-.45.52-.8.16a.62.62,0,0,1-.06-1c.3-.32.63-.63.93-1s.46-.81.07-1.2-.83-.23-1.19.1-1,1-1.47,1.47c-.28.29-.55.49-.93.13s-.3-.62,0-.92C996.44,561.29,997.3,560.1,998.5,559.8Z" transform="translate(-804.69 -403.39)"/><path class="cls-4" d="M993.81,569.26a3.91,3.91,0,0,1,.46-1.3,3,3,0,0,0,.45-1c.08-.5.28-1.15-.31-1.43s-.89.25-1.24.58-.76.73-1.13,1.11-.48.21-.72,0-.46-.49-.1-.81a12,12,0,0,1,2-1.8,1.92,1.92,0,0,1,2.36.23,1.79,1.79,0,0,1,.61,2.37c-.23.47-.46.95-.66,1.43s-.32.85.17,1.2.75-.08,1-.3c.48-.37.92-.81,1.37-1.21a.58.58,0,0,1,.87,0c.31.32.12.57-.13.83a28,28,0,0,0-2.49,2.5.54.54,0,0,1-.55.19A5.38,5.38,0,0,1,993.81,569.26Z" transform="translate(-804.69 -403.39)"/><path class="cls-7" d="M986.44,552.16c.07-.23.12-.46.2-.69s-.43-1,.4-1c.62,0,1.22-.05,1.42.76a7.55,7.55,0,0,0,.43,1C988.07,552.77,987.26,552.09,986.44,552.16Z" transform="translate(-804.69 -403.39)"/><path class="cls-7" d="M992.56,552.92c.3-.85,1.05-.54,1.54-.46,1,.18,2.27,0,2.86,1.2A24.37,24.37,0,0,1,992.56,552.92Z" transform="translate(-804.69 -403.39)"/><path class="cls-7" d="M972.74,552.18c.07-.41-.65-1.07.31-1.2s1.4.24,1.4,1.18Z" transform="translate(-804.69 -403.39)"/><path class="cls-4" d="M987.38,574.7l0,.39-2.63.86a.41.41,0,0,0,0-.19C985.28,574.6,986.33,574.66,987.38,574.7Z" transform="translate(-804.69 -403.39)"/><path class="cls-4" d="M988.64,572.49c-1,.52-2.1-.18-3.15,0l0,0c.07-.26.24-.5.5-.44a14.5,14.5,0,0,1,2.7.45Z" transform="translate(-804.69 -403.39)"/><path class="cls-7" d="M989.36,552.19c.7.1,1.82-1,2,.69C990.72,552.54,989.81,553,989.36,552.19Z" transform="translate(-804.69 -403.39)"/><path class="cls-4" d="M985,573a3.64,3.64,0,0,1-2,2l0,0a4.1,4.1,0,0,1,2-1.95Z" transform="translate(-804.69 -403.39)"/><path class="cls-7" d="M969.07,552.9v-.12c.08-.42-.2-.93.29-1.23a.47.47,0,0,1,.43.09c.47.4,0,.83,0,1.24Z" transform="translate(-804.69 -403.39)"/><path class="cls-4" d="M982.78,576.59c-.12.28-.29.33-.52.12,0-.3-.28-.58,0-.91C982.68,575.88,982.5,576.41,982.78,576.59Z" transform="translate(-804.69 -403.39)"/><path class="cls-7" d="M1000.39,554.38c.09-.53.41-.52.8-.32s.23.27-.07.32Z" transform="translate(-804.69 -403.39)"/><path class="cls-4" d="M988.65,572.48a.65.65,0,0,1,.64.49c-.39,0-.5-.26-.65-.48Z" transform="translate(-804.69 -403.39)"/><path class="cls-4" d="M985.49,572.5a.45.45,0,0,1-.51.47h0a.48.48,0,0,1,.47-.5Z" transform="translate(-804.69 -403.39)"/><path class="cls-4" d="M983,575,983,575l0-.12Z" transform="translate(-804.69 -403.39)"/><path class="cls-2" d="M988.14,476.31l0,.26Z" transform="translate(-804.69 -403.39)"/><polygon class="cls-5" points="113.04 58.83 113.04 58.92 112.94 58.87 113.04 58.83"/><path class="cls-2" d="M992.82,475.32c2.55,1,5.23,1.5,7.83,2.29" transform="translate(-804.69 -403.39)"/><path class="cls-5" d="M999.47,465.91l0,.08-.08,0s0,0,0-.08Z" transform="translate(-804.69 -403.39)"/><path class="cls-2" d="M1001.64,477.79l-.28-.12Z" transform="translate(-804.69 -403.39)"/><path class="cls-2" d="M984.72,576l2.63-.86c.76.51.55,1.29.57,2l-2.44.84A3.15,3.15,0,0,1,984.72,576Z" transform="translate(-804.69 -403.39)"/><path class="cls-7" d="M948.55,555.93c-.3.07-.45,0-.45-.19,0-.67.51-.94,1-1.22a.22.22,0,0,1,.34.2C949.42,555.37,948.79,555.56,948.55,555.93Z" transform="translate(-804.69 -403.39)"/><path class="cls-7" d="M946,560.49a.46.46,0,0,1-.46.42c-.32,0-.42-.2-.4-.47a.42.42,0,0,1,.51-.39C945.87,560.07,946,560.19,946,560.49Z" transform="translate(-804.69 -403.39)"/><path class="cls-2" d="M908.42,575.39l.23.34a16.72,16.72,0,0,1-2.46,2.37l-.46,0c-.84-1.22-2.34-1.84-3-3.25A36,36,0,0,1,908.42,575.39Z" transform="translate(-804.69 -403.39)"/><path class="cls-7" d="M964.74,551.18l1,.24c.31.07.71.08.72.51s-.39.46-.69.55c-.51.15-.85.67-1.42.66s-1.22-.1-1.35-.78.4-.91,1-1.05A7.27,7.27,0,0,1,964.74,551.18Z" transform="translate(-804.69 -403.39)"/><path class="cls-7" d="M960,554.39c-.35-.14-1.1.27-1.1-.44s.77-.56,1.25-.53,1.14-.34,1.14.39S960.57,554.34,960,554.39Z" transform="translate(-804.69 -403.39)"/><path class="cls-7" d="M953.47,554.34c-.36-.12-.85-.19-.9-.64s.44-.64.82-.68a.66.66,0,1,1,.08,1.32Z" transform="translate(-804.69 -403.39)"/><path class="cls-7" d="M957.63,556a.84.84,0,0,1-.71-.7c0-.31.18-.42.45-.44s.65.08.67.51S958.05,556,957.63,556Z" transform="translate(-804.69 -403.39)"/><path class="cls-7" d="M985.18,546.76a2.15,2.15,0,0,1-2.86.46L982,547c-.57-.26-1.43-.52-1.67,0s.69.53,1,.86a3.9,3.9,0,0,0,3.17.9c.38,0,.78,0,.85.51s-.35.71-.73.83a4.31,4.31,0,0,1-1.08.12c-1.67,0-3.34,0-5,0-.58,0-1.58.35-1.55-.62s1-.5,1.61-.57,1.45.17,2.12-.48c-.46-.39-.92-.21-1.33-.27s-1.38.22-.75-.86c.17-.28-.16-.43-.39-.48a.64.64,0,0,0-.84.5c-.18,1.37-1.16,1.1-2,1-.32,0-.73-.21-.63-.61.26-1.07-.44-1-1.11-1-.24,0-.55,0-.57-.33s.35-.39.62-.39c1.86,0,3.74.12,5.59,0A17.56,17.56,0,0,1,985.18,546.76Z" transform="translate(-804.69 -403.39)"/><path class="cls-7" d="M998.56,550.35c-1.51,1.95-3.54,1.21-5.38,1.32-.3,0-.57-.11-.56-.48s.28-.45.58-.47h.13c1.6.1,3.24.57,4.74-.47C998.15,550.18,998.36,550.3,998.56,550.35Z" transform="translate(-804.69 -403.39)"/><path class="cls-7" d="M1000.39,551a2.18,2.18,0,0,1,0,.25c0,.46,1.15.77.16,1.38a3.63,3.63,0,0,1-2.81.09.37.37,0,0,1-.09-.53.74.74,0,0,1,.7-.4c.52.09,1,.23,1.56.36.31-.33-.72-1.24.47-1.15Z" transform="translate(-804.69 -403.39)"/><path class="cls-7" d="M993.43,548.74c.81,0,1.47.65,2.31.58a.32.32,0,0,1,.32.41c-.06.26-.31.25-.49.23-.76-.11-1.52-.2-2.27-.37-.32-.07-.87-.09-.8-.55S993.1,548.84,993.43,548.74Z" transform="translate(-804.69 -403.39)"/><path class="cls-7" d="M970,546.87c-.27.1-.52,0-.52-.27s.25-.27.46-.28a4,4,0,0,0,1.41-.17c.23-.1.57-.35.63.16,0,.35-.25.46-.56.48Z" transform="translate(-804.69 -403.39)"/><path class="cls-7" d="M991.14,548.75c-.4,0-.87,0-.85-.39,0-.54.57-.32.89-.32s.78-.18.71.36S991.38,548.71,991.14,548.75Z" transform="translate(-804.69 -403.39)"/><path class="cls-7" d="M987.73,547c.37.05.8-.06.81.38s-.36.36-.63.35-.82.06-.8-.45S987.57,547.14,987.73,547Z" transform="translate(-804.69 -403.39)"/><path class="cls-7" d="M1002.19,553a2.68,2.68,0,0,1,1.88,1C1003.17,554.14,1002.77,553.74,1002.19,553Z" transform="translate(-804.69 -403.39)"/><path class="cls-4" d="M908.42,575.39a36,36,0,0,0-5.66-.58l-.52-.22c-1.28-1.24-2.58-2.46-3.83-3.72a2.07,2.07,0,0,1-.2-2.4,3,3,0,0,0-.37-3.08,2,2,0,0,1,.26-2.77c2.51-2.55,5.06-5.07,7.58-7.61a1.83,1.83,0,0,1,2.55-.14,3.34,3.34,0,0,0,3.23.39,2.81,2.81,0,0,1,3.21,1c1.68,1.83,3.48,3.54,5.22,5.3.54.54,1.26,1.08.8,2s-1.25,2.21-2.48,2c-2.53-.35-4.17.82-5.65,2.59a13.79,13.79,0,0,1-2,2A5.25,5.25,0,0,0,908.42,575.39Zm-.93-6.31a4.33,4.33,0,0,0,4.53-4.63,4.51,4.51,0,0,0-9,.19C903,566.51,904.66,569.35,907.49,569.08Z" transform="translate(-804.69 -403.39)"/><path class="cls-4" d="M1004.26,557.62c-.31.73-.74,1.47-1.54,1.59-.55.08-1-.51-1.1-1.12s1.12-1.75,1.57-1.69C1003.86,556.49,1004.06,557.05,1004.26,557.62Z" transform="translate(-804.69 -403.39)"/><path class="cls-4" d="M907.49,569.08c-2.83.27-4.5-2.57-4.48-4.44a4.51,4.51,0,0,1,9-.19A4.33,4.33,0,0,1,907.49,569.08Z" transform="translate(-804.69 -403.39)"/></g><g id="Layer_6" data-name="Layer 6"><path class="cls-2" d="M854.11,559.75a17,17,0,0,1,1,3.38,66.31,66.31,0,0,0,5.42,13.6,54.29,54.29,0,0,0,16.92,19.21,61.77,61.77,0,0,0,14.28,7.32c.66.24,1.3.51,2,.8C872.15,600.59,855.79,581.75,854.11,559.75Z" transform="translate(-804.69 -403.39)"/><path class="cls-2" d="M854.43,588.11a39.29,39.29,0,0,0,8,9.86,40.83,40.83,0,0,0,9.84,6.46,51.71,51.71,0,0,0,9.35,3.39c1.27.32,2.53.67,3.87,1a41.4,41.4,0,0,1-8.92-1.71,38.77,38.77,0,0,1-11.76-5.8,34.4,34.4,0,0,1-8.71-9.13,24.42,24.42,0,0,1-1.89-3.39l-.11-.19-.11-.18C854,588.19,854.24,588.19,854.43,588.11Z" transform="translate(-804.69 -403.39)"/><path class="cls-2" d="M1042.27,476.55a26.67,26.67,0,0,1-2.39-5.25,108.58,108.58,0,0,0-11.52-20.91,88.4,88.4,0,0,0-31.26-27.64,100.52,100.52,0,0,0-24.59-9c-1.1-.25-2.19-.56-3.45-.88C1004.81,414.13,1035.1,441.3,1042.27,476.55Z" transform="translate(-804.69 -403.39)"/><path class="cls-2" d="M1036,430.74a64.51,64.51,0,0,0-14.88-14.34,66.91,66.91,0,0,0-17.24-8.46,83.71,83.71,0,0,0-15.8-3.59c-2.12-.26-4.24-.57-6.48-.88a68,68,0,0,1,14.79,1,62.93,62.93,0,0,1,20.18,7,55.92,55.92,0,0,1,15.95,13,39.42,39.42,0,0,1,3.73,5.1l.23.28.2.27C1036.67,430.52,1036.29,430.58,1036,430.74Z" transform="translate(-804.69 -403.39)"/></g><g id="Layer_4" data-name="Layer 4"><path class="cls-1" d="M830.43,476.66a3.6,3.6,0,1,0,3.78,3.4A3.59,3.59,0,0,0,830.43,476.66Z" transform="translate(-804.69 -403.39)"/><path class="cls-1" d="M867.68,465.67l-62.17,3.25,1.29,24.58L869,490.24Zm-55.4,15.54A6,6,0,0,1,824,479.12l-2.53.14a3.6,3.6,0,1,0-3,5.23,3.56,3.56,0,0,0,3.17-2.3l2.53-.13a6,6,0,0,1-11.88-.85Zm49.51-4.92-2.35.12v0c-.12-1.09-1-1.62-2.42-1.55-1.14.06-1.84.55-1.8,1.29s.77,1.1,1.92,1.3l1.44.24c2.36.42,3.66,1,3.77,3.14a3.36,3.36,0,0,1-1.12,2.81,5.78,5.78,0,0,1-3.53,1.19c-3,.16-4.85-1.21-5-3.75V481l2.37-.13v.05c.18,1.35,1.06,2,2.71,1.88,1.37-.07,2.2-.68,2.15-1.58s-.63-1-1.79-1.24l-1.7-.34a6.2,6.2,0,0,1-2.67-1,2.54,2.54,0,0,1-1-2,3.15,3.15,0,0,1,1-2.59,5.07,5.07,0,0,1,3.18-1.13,5.32,5.32,0,0,1,3.41.82,3.22,3.22,0,0,1,1.37,2.56Zm-21.48,9.17-2.63.13-.8-15.26,2.22-.12.41,0Zm-9.38.78a6,6,0,1,1,5.68-6.3A6,6,0,0,1,830.93,486.24Zm9.86-6.58a5.56,5.56,0,0,1,5.38-6.23h0a5.56,5.56,0,0,1,6,5.63c0,.21,0,.41,0,.6l-2.41.13h0l-6.52.34a3.39,3.39,0,0,0,3.43,3h0a3.19,3.19,0,0,0,2.74-1.95L852,481a5.63,5.63,0,0,1-5.2,4.37h0A5.74,5.74,0,0,1,840.79,479.66Z" transform="translate(-804.69 -403.39)"/><path class="cls-1" d="M846.28,475.58h0a3.24,3.24,0,0,0-3,2.51l6.21-.32A3.25,3.25,0,0,0,846.28,475.58Z" transform="translate(-804.69 -403.39)"/><path class="cls-8" d="M818.59,486.89a6,6,0,0,0,5.57-4.83l-2.53.13a3.6,3.6,0,0,1-7-1.1,3.6,3.6,0,0,1,6.8-1.83l2.53-.14a6,6,0,0,0-11.73,2.09h0A6,6,0,0,0,818.59,486.89Z" transform="translate(-804.69 -403.39)"/><path class="cls-8" d="M830.3,474.26a6,6,0,1,0,6.31,5.68A6,6,0,0,0,830.3,474.26Zm.5,9.59a3.6,3.6,0,1,1,3.41-3.79A3.61,3.61,0,0,1,830.8,483.85Z" transform="translate(-804.69 -403.39)"/><polygon class="cls-8" points="32.2 66.94 33 82.2 35.62 82.07 34.82 66.8 34.42 66.82 32.2 66.94"/><path class="cls-8" d="M846.8,485.41A5.63,5.63,0,0,0,852,481l-2.58.14a3.19,3.19,0,0,1-2.74,1.95h0a3.39,3.39,0,0,1-3.43-3l6.52-.34h0l2.41-.13c0-.19,0-.39,0-.6a5.56,5.56,0,0,0-6-5.63h0a5.56,5.56,0,0,0-5.38,6.23,5.74,5.74,0,0,0,6,5.75Zm-.52-9.83h0a3.25,3.25,0,0,1,3.23,2.19l-6.21.32A3.24,3.24,0,0,1,846.28,475.58Z" transform="translate(-804.69 -403.39)"/><path class="cls-8" d="M860.42,473.71a5.32,5.32,0,0,0-3.41-.82,5.07,5.07,0,0,0-3.18,1.13,3.15,3.15,0,0,0-1,2.59,2.54,2.54,0,0,0,1,2,6.2,6.2,0,0,0,2.67,1l1.7.34c1.16.22,1.75.48,1.79,1.24s-.78,1.51-2.15,1.58c-1.65.08-2.53-.53-2.71-1.88v-.05l-2.37.13v.05c.13,2.54,1.95,3.91,5,3.75a5.78,5.78,0,0,0,3.53-1.19,3.36,3.36,0,0,0,1.12-2.81c-.11-2.1-1.41-2.72-3.77-3.14l-1.44-.24c-1.15-.2-1.87-.49-1.92-1.3s.66-1.23,1.8-1.29c1.47-.07,2.3.46,2.42,1.55v0l2.35-.12v0A3.22,3.22,0,0,0,860.42,473.71Z" transform="translate(-804.69 -403.39)"/></g><g id="Layer_3" data-name="Layer 3"><path class="cls-2" d="M986.75,559.27a1.55,1.55,0,0,1-1.55-1.46l-1.26-21.06a1.55,1.55,0,0,1,1.46-1.64l11.59-.69a1.55,1.55,0,0,1,1.55,1.46l.28,4.72a1.56,1.56,0,0,1-1.46,1.65l-4.79.28,0,.49,4.66-.28a1.59,1.59,0,0,1,1,.39,1.57,1.57,0,0,1,.52,1.07l.28,4.72a1.56,1.56,0,0,1-1.46,1.65l-4.56.27.38,6.47a1.52,1.52,0,0,1-.39,1.13A1.57,1.57,0,0,1,992,559Z" transform="translate(-804.69 -403.39)"/><path d="M997,536l.28,4.73-6.35.38.22,3.58,6.12-.37.28,4.73-6.12.36.48,8-5.15.3-1.26-21.05L997,536m0-3.11h-.19l-11.49.69a3.1,3.1,0,0,0-2.92,3.29l1.26,21a3.11,3.11,0,0,0,3.1,2.92h.19l5.15-.31a3.11,3.11,0,0,0,2.14-1,3.14,3.14,0,0,0,.77-2.25l-.29-4.92,3-.18a3.1,3.1,0,0,0,2.92-3.29l-.28-4.72a3.18,3.18,0,0,0-.56-1.61,3.06,3.06,0,0,0,.57-2l-.28-4.72a3.12,3.12,0,0,0-3.1-2.93Z" transform="translate(-804.69 -403.39)"/><path class="cls-2" d="M997.08,558.65a1.56,1.56,0,0,1-1.24-.61,1.58,1.58,0,0,1-.24-1.44l7.19-21.55a1.55,1.55,0,0,1,1.39-1.06l4.33-.26a1.56,1.56,0,0,1,1.41.9l9.62,20.55a1.55,1.55,0,0,1-1.32,2.21l-5.92.35a1.55,1.55,0,0,1-1.44-1l-.79-1.95-5.11.31-.62,2.07a1.54,1.54,0,0,1-1.39,1.1Zm9.92-11,.24,0-.15-.38Z" transform="translate(-804.69 -403.39)"/><path d="M1008.51,535.28l9.62,20.56-5.83.35-1.21-3-7.31.44-.93,3.11-5.77.35,7.19-21.56,4.24-.26m-3.5,14,4.41-.26-2.6-7.07h-.08l-1.73,7.32m3.5-17.1h-.19l-4.24.25a3.12,3.12,0,0,0-2.76,2.12l-7.19,21.56a3.1,3.1,0,0,0,3,4.09h.18l5.78-.35a3.09,3.09,0,0,0,2.79-2.21l.31-1,2.91-.17.37.91a3.11,3.11,0,0,0,2.88,1.95h.18l5.84-.35a3.09,3.09,0,0,0,2.48-1.51,3.13,3.13,0,0,0,.15-2.91L1011.32,534a3.09,3.09,0,0,0-2.81-1.79Z" transform="translate(-804.69 -403.39)"/><path class="cls-2" d="M1019.58,557.31a1.56,1.56,0,0,1-1.55-1.47l-1.26-21.05a1.55,1.55,0,0,1,1.46-1.64l4.73-.28a1.53,1.53,0,0,1,1.27.66l5.74,8.18-.59-7.65a1.54,1.54,0,0,1,.37-1.14,1.62,1.62,0,0,1,1.08-.53l5.25-.31a1.56,1.56,0,0,1,1.55,1.46l1.26,21.06a1.56,1.56,0,0,1-1.46,1.64l-4.76.28a1.57,1.57,0,0,1-1.27-.65l-5.64-7.91.52,7.37a1.56,1.56,0,0,1-1.46,1.67Z" transform="translate(-804.69 -403.39)"/><path d="M1036.08,533.64l1.25,21.05-4.66.28-8.79-12.32,0,0,.9,12.76-5.15.31-1.26-21,4.64-.28,8.93,12.74,0-.06-1-13.15,5.15-.31m0-3.11h-.19l-5.15.31a3.1,3.1,0,0,0-2.91,3.34l.15,2-2.47-3.53a3.11,3.11,0,0,0-2.55-1.33h-.18l-4.64.27a3.12,3.12,0,0,0-2.92,3.29l1.26,21.06a3.11,3.11,0,0,0,3.1,2.92h.19l5.15-.3a3.11,3.11,0,0,0,2.91-3.33l-.13-1.86,2.44,3.41a3.11,3.11,0,0,0,2.53,1.31h.18l4.67-.28a3.11,3.11,0,0,0,2.92-3.29l-1.26-21a3.11,3.11,0,0,0-1-2.14,3.14,3.14,0,0,0-2.06-.78Z" transform="translate(-804.69 -403.39)"/><path class="cls-2" d="M1046.11,556.1c-6.13,0-8.56-4.16-8.77-7.72l0-.68a1.61,1.61,0,0,1,.39-1.13,1.57,1.57,0,0,1,1.07-.52l3.24-.19c-2-.9-4.66-2.73-4.88-6.46-.29-4.85,4.07-8,8.46-8.29l.6,0a8.86,8.86,0,0,1,6.45,2.55,7.89,7.89,0,0,1,2.06,5,1.56,1.56,0,0,1-1.45,1.72l-3.79.22c4,1.58,5.75,3.68,5.94,7a7.91,7.91,0,0,1-1.66,5.55c-1.48,1.81-3.75,2.81-6.75,3Zm-.35-8.85c0,.57.2,1.23.7,1.23a.5.5,0,0,0,.48-.5c0-.12,0-.17,0-.17A4.33,4.33,0,0,0,1045.76,547.25Zm-.19-8.32a3.79,3.79,0,0,0,.71.38,1.67,1.67,0,0,0-.2-.58h-.14a.53.53,0,0,0-.38.13Z" transform="translate(-804.69 -403.39)"/><path d="M1046.18,532.65a7.39,7.39,0,0,1,5.32,2.06,6.41,6.41,0,0,1,1.64,4.07l-5.32.32c-.15-.68-.39-1.94-1.88-1.94h-.17a1.75,1.75,0,0,0-1.75,1.76c.07,1.25.65,1.47,4.54,3s5.14,3.3,5.28,5.74c.19,3.07-1.38,6.57-6.95,6.9l-.78,0c-5.46,0-7.06-3.67-7.22-6.25l0-.69,5.35-.32c.14,2.33,1.53,2.75,2.26,2.75h.1a2,2,0,0,0,1.93-2.15c-.08-1.39-1-1.68-4.31-2.85-1.52-.51-5.27-1.77-5.51-5.72s3.47-6.43,7-6.65h.51m0-3.11-.7,0c-5.15.31-10.26,4.11-9.91,9.93a8.15,8.15,0,0,0,2.16,5.21,3.12,3.12,0,0,0-2,3.09l0,.68c.38,6.34,5.46,9.18,10.32,9.18l1,0c4.3-.25,6.65-2.07,7.86-3.55a9.51,9.51,0,0,0,2-6.63,8.13,8.13,0,0,0-2.63-5.78,3.12,3.12,0,0,0,1.2-.87,3.06,3.06,0,0,0,.71-2.34,9.31,9.31,0,0,0-2.44-5.84l0,0a10.47,10.47,0,0,0-7.58-3Z" transform="translate(-804.69 -403.39)"/><path class="cls-8" d="M985.49,536.66,997,536l.28,4.73-6.35.38.22,3.58,6.12-.37.28,4.73-6.12.36.48,8-5.15.3Z" transform="translate(-804.69 -403.39)"/><path class="cls-8" d="M1003.78,553.64l-.93,3.11-5.77.35,7.19-21.56,4.24-.26,9.62,20.56-5.83.35-1.21-3Zm1.23-4.36,4.41-.26-2.6-7.07h-.08Z" transform="translate(-804.69 -403.39)"/><path class="cls-8" d="M1018.32,534.7l4.64-.28,8.93,12.74,0-.06-1-13.16,5.15-.3,1.25,21.05-4.66.28-8.79-12.32,0,0,.9,12.76-5.15.31Z" transform="translate(-804.69 -403.39)"/><path class="cls-8" d="M1047.82,539.1c-.15-.7-.4-2-2-1.93a1.77,1.77,0,0,0-1.76,1.76c.08,1.25.66,1.47,4.55,3s5.14,3.3,5.28,5.74c.19,3.07-1.38,6.57-6.95,6.9-6.09.36-7.84-3.53-8-6.23l0-.69,5.35-.32c.15,2.45,1.68,2.79,2.36,2.75a2,2,0,0,0,1.93-2.15c-.08-1.39-1-1.68-4.31-2.85-1.52-.51-5.27-1.77-5.51-5.72s3.47-6.43,7-6.65a7.53,7.53,0,0,1,5.83,2.05,6.41,6.41,0,0,1,1.64,4.07Z" transform="translate(-804.69 -403.39)"/></g><g id="Layer_2" data-name="Layer 2"><path class="cls-2" d="M810.3,544.17a2.8,2.8,0,0,1-2.66-3.69l13-38.9a2.8,2.8,0,0,1,2.49-1.91l7.65-.46h.17a2.8,2.8,0,0,1,2.54,1.61l17.36,37.08a2.8,2.8,0,0,1-2.37,4l-10.52.63h-.17a2.8,2.8,0,0,1-2.6-1.76l-1.42-3.51-9.22.55-1.12,3.73a2.79,2.79,0,0,1-2.52,2l-10.42.62Zm17.9-19.92.42,0-.25-.7Z" transform="translate(-804.69 -403.39)"/><path d="M830.92,502l17.36,37.08-10.52.63-2.18-5.38-13.19.79-1.67,5.61-10.42.62,13-38.89,7.65-.46m-6.32,25.26,8-.48L827.88,514h-.16l-3.12,13.22m6.32-30.87h-.33l-7.65.46a5.6,5.6,0,0,0-5,3.82l-13,38.9A5.6,5.6,0,0,0,810.3,547h.33l10.42-.62a5.61,5.61,0,0,0,5-4l.55-1.85,5.25-.31.67,1.65a5.61,5.61,0,0,0,5.2,3.5h.33l10.53-.63a5.61,5.61,0,0,0,4.74-8L836,499.63a5.61,5.61,0,0,0-5.08-3.23Z" transform="translate(-804.69 -403.39)"/><path class="cls-2" d="M850.9,541.74a2.8,2.8,0,0,1-2.8-2.63l-2.27-38a2.8,2.8,0,0,1,2.63-3l12-.72c1.32-.07,2.46-.11,3.51-.11,4.56,0,7.3.71,10.1,2.62a16,16,0,0,1,6.52,12.24c.3,5.13-1.73,10.83-6.76,13.8l8.4,9.33a2.81,2.81,0,0,1-1.91,4.68l-11.09.66h-.17a2.82,2.82,0,0,1-2.18-1l-4.12-5.09.22,3.69a2.8,2.8,0,0,1-2.63,3l-9.29.56Zm10.79-25.22.64,0c3.29-.2,3.49-1.58,3.41-2.86,0-.75-.13-2.14-3.07-2.14l-.53,0-.74,0Z" transform="translate(-804.69 -403.39)"/><path d="M864,500.12c4.31,0,6.43.71,8.53,2.14a13.17,13.17,0,0,1,5.29,10.08c.26,4.37-1.62,10.92-8.73,12.53l11.09,12.32-11.09.66-9.51-11.74h-.1l.73,12.27-9.29.56-2.27-38,12-.72c1.25-.07,2.35-.11,3.34-.11m-4.92,19.37,3.44-.2c5.7-.34,6.15-4,6-5.83-.19-3.22-2.5-4.78-5.87-4.78l-.7,0-3.54.21.63,10.57m4.92-25h0c-1.1,0-2.3,0-3.67.12l-12,.72a5.61,5.61,0,0,0-5.26,5.94l2.27,38a5.63,5.63,0,0,0,5.6,5.28h.33l9.3-.56a5.6,5.6,0,0,0,4.3-2.45,5.62,5.62,0,0,0,4.24,1.93h.34l11.08-.66a5.61,5.61,0,0,0,3.84-9.35L878,526.38a16.29,16.29,0,0,0,3.12-4A19.38,19.38,0,0,0,883.4,512a18.82,18.82,0,0,0-7.69-14.36l-.05,0c-3.28-2.24-6.56-3.11-11.68-3.11Z" transform="translate(-804.69 -403.39)"/><path class="cls-2" d="M883.13,539.82a2.8,2.8,0,0,1-2.79-2.64l-2.27-38a2.79,2.79,0,0,1,2.63-3l12.47-.75h.17a2.81,2.81,0,0,1,2.63,1.84l5.87,15.94,3.86-16.51a2.8,2.8,0,0,1,2.56-2.16l12.53-.75H921a2.81,2.81,0,0,1,1.86.71,2.85,2.85,0,0,1,.94,1.93l2.27,38a2.82,2.82,0,0,1-2.64,3l-8.93.53h-.16a2.79,2.79,0,0,1-2.81-2.66l-.39-8-2,9a2.8,2.8,0,0,1-2.57,2.19l-6.42.38H900a2.8,2.8,0,0,1-2.64-1.88l-3-8.64.57,8a2.81,2.81,0,0,1-2.63,3l-8.94.53Z" transform="translate(-804.69 -403.39)"/><path d="M921,496.63l2.27,38-8.93.53-1.4-28.46-.11-.09-6.4,29L900,536,890.16,508l-.1.11,2,28.42-8.93.53-2.27-38,12.47-.75,9,24.55h.1l5.95-25.44,12.53-.75m0-5.61h-.34l-12.52.75A5.6,5.6,0,0,0,903,496.1l-1.73,7.4-2.64-7.16a5.61,5.61,0,0,0-5.26-3.67H893l-12.48.75a5.59,5.59,0,0,0-5.26,5.93l2.27,38a5.59,5.59,0,0,0,5.6,5.27h.33l8.93-.53a5.23,5.23,0,0,1,7.57-.47h.34l6.41-.38a5.23,5.23,0,0,1,7.58-.46h.33l8.93-.53a5.63,5.63,0,0,0,5.27-5.94l-2.27-38A5.61,5.61,0,0,0,921,491Z" transform="translate(-804.69 -403.39)"/><path class="cls-2" d="M946,536.74a22.7,22.7,0,0,1-22.69-21.24,23,23,0,0,1,5.13-15.74,22.45,22.45,0,0,1,16.25-8.08c.51,0,1-.05,1.51-.05a22.26,22.26,0,0,1,21.59,16.2,2.81,2.81,0,0,1-2.56,3.44l-10.16.6h-.17a2.81,2.81,0,0,1-2.56-1.65c-.47-1-2.32-4.44-6.4-4.44h-.46a6.77,6.77,0,0,0-5.21,2.82,9.3,9.3,0,0,0-1.66,5.91c.24,3.91,2.93,8.06,7.46,8.06h.47c2.9-.17,5-1.92,6.3-5.18a2.81,2.81,0,0,1,2.45-1.78l10.16-.61h.17a2.81,2.81,0,0,1,2.76,3.32,22.22,22.22,0,0,1-20.9,18.37C947,536.72,946.52,536.74,946,536.74Z" transform="translate(-804.69 -403.39)"/><path d="M946.23,494.44a19.41,19.41,0,0,1,18.86,14l-10.16.6a9.93,9.93,0,0,0-9-6.09l-.63,0c-6.52.39-9.82,6.31-9.5,11.7.33,5.55,4.3,10.7,10.26,10.7l.63,0c6.06-.36,8.22-5.59,8.76-7l10.16-.61a19.51,19.51,0,0,1-18.31,16.09l-1.31,0a19.74,19.74,0,0,1-1.14-39.45c.45,0,.9,0,1.34,0m0-5.61c-.55,0-1.12,0-1.68.05A25.17,25.17,0,0,0,926.3,498a25.77,25.77,0,0,0-5.76,17.67A25.5,25.5,0,0,0,946,539.54c.54,0,1.1,0,1.65,0a25,25,0,0,0,23.49-20.67,5.63,5.63,0,0,0-1.32-4.73,5.43,5.43,0,0,0-1.39-1.14,5.5,5.5,0,0,0,1.13-1.13,5.59,5.59,0,0,0,1-4.63c-2.08-8.9-11.32-18.36-24.32-18.36Zm-.13,31c-2.81,0-4.5-2.8-4.66-5.43-.09-1.52.49-5.53,4.24-5.76H946a4.46,4.46,0,0,1,3.85,2.79,5.55,5.55,0,0,0,2.3,2.55,5.59,5.59,0,0,0-1.86,2.44c-1.27,3.26-3.15,3.37-3.86,3.41Z" transform="translate(-804.69 -403.39)"/><path class="cls-2" d="M970.25,534.61a2.81,2.81,0,0,1-1.87-.71,2.78,2.78,0,0,1-.93-1.93l-2.27-38a2.74,2.74,0,0,1,.7-2,2.77,2.77,0,0,1,1.93-.94l9.7-.58h.17a2.81,2.81,0,0,1,2.8,2.64l.68,11.47,6.83-.41-.69-11.47a2.8,2.8,0,0,1,2.63-3l9.71-.58h.17a2.8,2.8,0,0,1,2.79,2.64l2.27,38a2.79,2.79,0,0,1-2.63,3l-9.7.58h-.17a2.8,2.8,0,0,1-2.8-2.64l-.74-12.39-6.82.4.74,12.4a2.8,2.8,0,0,1-2.63,3l-9.71.58Z" transform="translate(-804.69 -403.39)"/><path d="M999.8,491.92l2.27,38-9.7.58-.91-15.19L979,516l.91,15.2-9.7.58-2.27-38,9.7-.58.85,14.27,12.42-.74-.85-14.27,9.7-.58m0-5.61h-.33l-9.7.58a5.59,5.59,0,0,0-5.27,5.93l.52,8.67-1.22.08-.52-8.68a5.61,5.61,0,0,0-5.6-5.27h-.34l-9.7.58a5.61,5.61,0,0,0-5.26,5.93l2.27,38a5.61,5.61,0,0,0,5.59,5.28h.34l9.7-.58a5.62,5.62,0,0,0,5.27-5.94L985,521.3l1.23-.08.57,9.6a5.61,5.61,0,0,0,5.6,5.27h.34l9.7-.58a5.6,5.6,0,0,0,5.26-5.93l-2.27-38a5.59,5.59,0,0,0-5.6-5.27Z" transform="translate(-804.69 -403.39)"/><path class="cls-2" d="M1007.67,532.37a2.8,2.8,0,0,1-2.8-2.63l-2.27-38a2.8,2.8,0,0,1,2.63-3l21.1-1.26h.17a2.78,2.78,0,0,1,2.79,2.63l.51,8.53a2.79,2.79,0,0,1-2.63,3l-9,.54v.3l8.65-.51h.17a2.81,2.81,0,0,1,2.8,2.64l.51,8.52a2.81,2.81,0,0,1-2.64,3l-8.64.52.05.91,9-.53h.17a2.81,2.81,0,0,1,1.86.71,2.85,2.85,0,0,1,.94,1.93l.5,8.52a2.79,2.79,0,0,1-2.63,3l-21.1,1.26Z" transform="translate(-804.69 -403.39)"/><path d="M1026.49,490.32l.51,8.52-11.8.71.35,5.9,11.45-.68.51,8.52-11.45.68.39,6.52,11.81-.7.51,8.52-21.1,1.26-2.27-38,21.09-1.26m0-5.61h-.34l-21.1,1.26a5.61,5.61,0,0,0-5.26,5.94l2.27,38a5.61,5.61,0,0,0,5.59,5.28h.34l21.1-1.26A5.64,5.64,0,0,0,1033,532a5.58,5.58,0,0,0,1.4-4.06l-.5-8.52a5.57,5.57,0,0,0-1.45-3.43,5.71,5.71,0,0,0,.7-3.07l-.51-8.52a5.59,5.59,0,0,0-.84-2.62,5.54,5.54,0,0,0,.84-3.3l-.51-8.52a5.6,5.6,0,0,0-5.59-5.28Z" transform="translate(-804.69 -403.39)"/><path class="cls-2" d="M1033.49,530.83a2.81,2.81,0,0,1-2.8-2.64l-2.27-38a2.8,2.8,0,0,1,2.63-3l21.1-1.26h.17a2.81,2.81,0,0,1,1.86.71,2.85,2.85,0,0,1,.94,1.93l.5,8.52a2.79,2.79,0,0,1-2.63,3l-9,.54v.3l8.65-.52h.17a2.81,2.81,0,0,1,2.8,2.64l.51,8.52a2.82,2.82,0,0,1-2.64,3l-8.64.51.05.92,9-.54h.17a2.81,2.81,0,0,1,2.8,2.64l.5,8.52a2.79,2.79,0,0,1-2.63,3l-21.1,1.27Z" transform="translate(-804.69 -403.39)"/><path d="M1052.31,488.78l.51,8.52L1041,498l.35,5.9,11.45-.69.51,8.53-11.45.68.39,6.52,11.81-.71.51,8.52-21.1,1.27-2.27-38,21.09-1.26m0-5.61H1052l-21.1,1.26a5.61,5.61,0,0,0-5.26,5.93l2.27,38a5.61,5.61,0,0,0,5.59,5.28h.34l21.1-1.27a5.57,5.57,0,0,0,3.86-1.87,5.65,5.65,0,0,0,1.41-4.06l-.51-8.52a5.62,5.62,0,0,0-1.45-3.44,5.67,5.67,0,0,0,.7-3.06l-.51-8.52a5.66,5.66,0,0,0-.83-2.62,5.63,5.63,0,0,0,.83-3.31l-.51-8.52a5.6,5.6,0,0,0-5.59-5.27Z" transform="translate(-804.69 -403.39)"/><path class="cls-2" d="M1059.31,529.29a2.81,2.81,0,0,1-2.8-2.64l-2.27-38a2.8,2.8,0,0,1,2.63-3l12-.72c1.32-.08,2.46-.12,3.51-.12,4.56,0,7.29.71,10.1,2.62a16,16,0,0,1,6.52,12.24c.3,5.13-1.73,10.83-6.76,13.8l8.4,9.34a2.8,2.8,0,0,1-1.92,4.67l-11.08.67h-.17a2.8,2.8,0,0,1-2.18-1l-4.12-5.09.22,3.69a2.81,2.81,0,0,1-2.63,3l-9.3.55Zm10.79-25.22.64,0c3.29-.2,3.49-1.58,3.41-2.85-.05-.75-.13-2.15-3.07-2.15l-.53,0-.75,0Z" transform="translate(-804.69 -403.39)"/><path d="M1072.39,487.67c4.31,0,6.43.7,8.53,2.13a13.24,13.24,0,0,1,5.29,10.09c.26,4.36-1.62,10.91-8.73,12.52l11.09,12.32-11.09.67L1068,513.65h-.1l.73,12.27-9.29.55-2.27-38,12-.72c1.25-.08,2.35-.11,3.34-.11M1067.47,507l3.44-.21c5.7-.34,6.15-4,6-5.82-.19-3.22-2.5-4.78-5.87-4.78l-.7,0-3.54.21.63,10.58m4.92-25c-1.1,0-2.3,0-3.68.12l-12,.72a5.59,5.59,0,0,0-5.26,5.93l2.27,38a5.61,5.61,0,0,0,5.59,5.27h.34l9.29-.55a5.64,5.64,0,0,0,3.87-1.88,4.92,4.92,0,0,0,.44-.58,5.63,5.63,0,0,0,4.24,1.94h.33l11.09-.67a5.61,5.61,0,0,0,3.84-9.35l-6.35-7.05a16.34,16.34,0,0,0,3.12-4,19.38,19.38,0,0,0,2.3-10.36,18.85,18.85,0,0,0-7.69-14.36l0,0c-3.29-2.23-6.56-3.1-11.68-3.1Z" transform="translate(-804.69 -403.39)"/><path class="cls-8" d="M822.39,535.13l-1.67,5.61-10.42.62,13-38.89,7.65-.46,17.36,37.08-10.52.63-2.18-5.38Zm2.21-7.86,8-.48L827.88,514h-.16Z" transform="translate(-804.69 -403.39)"/><path class="cls-8" d="M848.63,501l12-.72c6.67-.39,9.29.27,11.87,2a13.17,13.17,0,0,1,5.29,10.08c.26,4.37-1.62,10.92-8.73,12.53l11.09,12.32-11.09.66-9.51-11.74h-.1l.73,12.27-9.29.56Zm10.43,18.54,3.44-.2c5.7-.34,6.15-4,6-5.83-.2-3.43-2.82-5-6.57-4.75l-3.54.21Z" transform="translate(-804.69 -403.39)"/><path class="cls-8" d="M880.87,499l12.47-.75,9,24.55h.1l5.95-25.44,12.53-.75,2.27,38-8.93.53-1.4-28.46-.11-.09-6.4,29L900,536,890.16,508l-.1.11,2,28.42-8.93.53Z" transform="translate(-804.69 -403.39)"/><path class="cls-8" d="M965.65,517.81a19.51,19.51,0,0,1-18.31,16.09,19.75,19.75,0,1,1-2.45-39.42c11.9-.71,18.82,8.09,20.2,14l-10.16.6a9.88,9.88,0,0,0-9.59-6.07c-6.52.39-9.82,6.31-9.5,11.7.35,5.75,4.58,11.06,10.89,10.68,6.06-.36,8.22-5.59,8.76-7Z" transform="translate(-804.69 -403.39)"/><path class="cls-8" d="M968,493.82l9.7-.58.85,14.27,12.42-.74-.85-14.27,9.7-.58,2.27,38-9.7.58-.91-15.19L979,516l.91,15.2-9.7.58Z" transform="translate(-804.69 -403.39)"/><path class="cls-8" d="M1005.4,491.58l21.09-1.26.51,8.52-11.8.71.35,5.9,11.45-.68.51,8.52-11.45.68.39,6.52,11.81-.7.51,8.52-21.1,1.26Z" transform="translate(-804.69 -403.39)"/><path class="cls-8" d="M1031.22,490l21.1-1.26.5,8.52L1041,498l.35,5.9,11.45-.69.51,8.53-11.45.68.39,6.52,11.81-.71.51,8.52-21.1,1.27Z" transform="translate(-804.69 -403.39)"/><path class="cls-8" d="M1057,488.5l12-.72c6.67-.4,9.29.27,11.87,2a13.24,13.24,0,0,1,5.29,10.09c.26,4.36-1.62,10.91-8.73,12.52l11.09,12.32-11.09.67L1068,513.65h-.1l.73,12.27-9.29.55ZM1067.47,507l3.44-.21c5.7-.34,6.15-4,6-5.82-.21-3.44-2.82-5-6.57-4.76l-3.54.21Z" transform="translate(-804.69 -403.39)"/></g></svg>